<svg width="21" height="18" viewBox="0 0 21 18" fill="none" xmlns="http://www.w3.org/2000/svg">
<path d="M15 16.75V15C15 14.0717 14.6313 13.1815 13.9749 12.5251C13.3185 11.8687 12.4283 11.5 11.5 11.5H4.5C3.57174 11.5 2.6815 11.8687 2.02513 12.5251C1.36875 13.1815 1 14.0717 1 15V16.75" stroke="white" stroke-width="1.2" stroke-linecap="round" stroke-linejoin="round"/>
<path d="M8 8C9.933 8 11.5 6.433 11.5 4.5C11.5 2.567 9.933 1 8 1C6.067 1 4.5 2.567 4.5 4.5C4.5 6.433 6.067 8 8 8Z" stroke="white" stroke-width="1.2" stroke-linecap="round" stroke-linejoin="round"/>
<path d="M20.25 16.75V15C20.2494 14.2245 19.9913 13.4712 19.5162 12.8583C19.0411 12.2454 18.3759 11.8076 17.625 11.6138" stroke="white" stroke-width="1.2" stroke-linecap="round" stroke-linejoin="round"/>
<path d="M14.125 1.11377C14.8779 1.30653 15.5452 1.74438 16.0217 2.35829C16.4982 2.9722 16.7569 3.72725 16.7569 4.50439C16.7569 5.28154 16.4982 6.03659 16.0217 6.6505C15.5452 7.26441 14.8779 7.70226 14.125 7.89502" stroke="white" stroke-width="1.2" stroke-linecap="round" stroke-linejoin="round"/>
</svg>
