<svg width="18" height="24" viewBox="0 0 18 24" fill="none" xmlns="http://www.w3.org/2000/svg">
<path d="M18 8.25C18 8.70312 17.9258 9.13281 17.7773 9.53906C17.6289 9.94531 17.4141 10.3125 17.1328 10.6406C16.8516 10.9688 16.5273 11.2461 16.1602 11.4727C15.793 11.6992 15.3828 11.8516 14.9297 11.9297C14.8438 12.375 14.6914 12.7852 14.4727 13.1602C14.2539 13.5352 13.9766 13.8594 13.6406 14.1328C13.3047 14.4062 12.9375 14.6172 12.5391 14.7656C12.1406 14.9141 11.7109 14.9922 11.25 15H6.75C6.5 15 6.26172 15.0391 6.03516 15.1172C5.80859 15.1953 5.60156 15.3047 5.41406 15.4453C5.22656 15.5859 5.0625 15.7539 4.92188 15.9492C4.78125 16.1445 4.67578 16.3633 4.60547 16.6055C5.02734 16.707 5.41406 16.8711 5.76562 17.0977C6.11719 17.3242 6.42188 17.6016 6.67969 17.9297C6.9375 18.2578 7.13672 18.6172 7.27734 19.0078C7.41797 19.3984 7.49219 19.8125 7.5 20.25C7.5 20.7656 7.40234 21.25 7.20703 21.7031C7.01172 22.1562 6.74219 22.5547 6.39844 22.8984C6.05469 23.2422 5.65625 23.5117 5.20312 23.707C4.75 23.9023 4.26562 24 3.75 24C3.23438 24 2.75 23.9023 2.29688 23.707C1.84375 23.5117 1.44531 23.2461 1.10156 22.9102C0.757812 22.5742 0.488281 22.1758 0.292969 21.7148C0.0976563 21.2539 0 20.7656 0 20.25C0 19.8047 0.0742188 19.3789 0.222656 18.9727C0.371094 18.5664 0.578125 18.2031 0.84375 17.8828C1.10938 17.5625 1.42578 17.2852 1.79297 17.0508C2.16016 16.8164 2.5625 16.6602 3 16.582V7.41797C2.5625 7.33203 2.16016 7.17578 1.79297 6.94922C1.42578 6.72266 1.10938 6.44922 0.84375 6.12891C0.578125 5.80859 0.371094 5.44141 0.222656 5.02734C0.0742188 4.61328 0 4.1875 0 3.75C0 3.23438 0.0976563 2.75 0.292969 2.29688C0.488281 1.84375 0.753906 1.44922 1.08984 1.11328C1.42578 0.777344 1.82422 0.507812 2.28516 0.304688C2.74609 0.101562 3.23438 0 3.75 0C4.26562 0 4.75 0.0976563 5.20312 0.292969C5.65625 0.488281 6.05078 0.757812 6.38672 1.10156C6.72266 1.44531 6.99219 1.84375 7.19531 2.29688C7.39844 2.75 7.5 3.23438 7.5 3.75C7.5 4.19531 7.42578 4.62109 7.27734 5.02734C7.12891 5.43359 6.92188 5.79688 6.65625 6.11719C6.39062 6.4375 6.07422 6.71484 5.70703 6.94922C5.33984 7.18359 4.9375 7.33984 4.5 7.41797V14.2734C4.82812 14.0234 5.18359 13.832 5.56641 13.6992C5.94922 13.5664 6.34375 13.5 6.75 13.5H11.25C11.5 13.5 11.7383 13.4609 11.9648 13.3828C12.1914 13.3047 12.3984 13.1953 12.5859 13.0547C12.7734 12.9141 12.9375 12.7461 13.0781 12.5508C13.2188 12.3555 13.3242 12.1367 13.3945 11.8945C12.9727 11.793 12.5859 11.6289 12.2344 11.4023C11.8828 11.1758 11.5781 10.9023 11.3203 10.582C11.0625 10.2617 10.8633 9.90234 10.7227 9.50391C10.582 9.10547 10.5078 8.6875 10.5 8.25C10.5 7.73438 10.5977 7.25 10.793 6.79688C10.9883 6.34375 11.2539 5.94922 11.5898 5.61328C11.9258 5.27734 12.3242 5.00781 12.7852 4.80469C13.2461 4.60156 13.7344 4.5 14.25 4.5C14.7656 4.5 15.25 4.59766 15.7031 4.79297C16.1562 4.98828 16.5508 5.25781 16.8867 5.60156C17.2227 5.94531 17.4922 6.34375 17.6953 6.79688C17.8984 7.25 18 7.73438 18 8.25ZM1.5 3.75C1.5 4.0625 1.55859 4.35547 1.67578 4.62891C1.79297 4.90234 1.95312 5.14062 2.15625 5.34375C2.35938 5.54688 2.59766 5.70703 2.87109 5.82422C3.14453 5.94141 3.4375 6 3.75 6C4.0625 6 4.35547 5.94141 4.62891 5.82422C4.90234 5.70703 5.14062 5.54688 5.34375 5.34375C5.54688 5.14062 5.70703 4.90234 5.82422 4.62891C5.94141 4.35547 6 4.0625 6 3.75C6 3.4375 5.94141 3.14453 5.82422 2.87109C5.70703 2.59766 5.54688 2.35938 5.34375 2.15625C5.14062 1.95312 4.90234 1.79297 4.62891 1.67578C4.35547 1.55859 4.0625 1.5 3.75 1.5C3.4375 1.5 3.14453 1.55859 2.87109 1.67578C2.59766 1.79297 2.35938 1.95312 2.15625 2.15625C1.95312 2.35938 1.79297 2.59766 1.67578 2.87109C1.55859 3.14453 1.5 3.4375 1.5 3.75ZM6 20.25C6 19.9375 5.94141 19.6445 5.82422 19.3711C5.70703 19.0977 5.54688 18.8594 5.34375 18.6562C5.14062 18.4531 4.90234 18.293 4.62891 18.1758C4.35547 18.0586 4.0625 18 3.75 18C3.4375 18 3.14453 18.0586 2.87109 18.1758C2.59766 18.293 2.35938 18.4531 2.15625 18.6562C1.95312 18.8594 1.79297 19.0977 1.67578 19.3711C1.55859 19.6445 1.5 19.9375 1.5 20.25C1.5 20.5625 1.55859 20.8555 1.67578 21.1289C1.79297 21.4023 1.95312 21.6406 2.15625 21.8438C2.35938 22.0469 2.59766 22.207 2.87109 22.3242C3.14453 22.4414 3.4375 22.5 3.75 22.5C4.0625 22.5 4.35547 22.4414 4.62891 22.3242C4.90234 22.207 5.14062 22.0469 5.34375 21.8438C5.54688 21.6406 5.70703 21.4023 5.82422 21.1289C5.94141 20.8555 6 20.5625 6 20.25ZM14.25 10.5C14.5625 10.5 14.8555 10.4414 15.1289 10.3242C15.4023 10.207 15.6406 10.0469 15.8438 9.84375C16.0469 9.64062 16.207 9.40234 16.3242 9.12891C16.4414 8.85547 16.5 8.5625 16.5 8.25C16.5 7.9375 16.4414 7.64453 16.3242 7.37109C16.207 7.09766 16.0469 6.85938 15.8438 6.65625C15.6406 6.45312 15.4023 6.29297 15.1289 6.17578C14.8555 6.05859 14.5625 6 14.25 6C13.9375 6 13.6445 6.05859 13.3711 6.17578C13.0977 6.29297 12.8594 6.45312 12.6562 6.65625C12.4531 6.85938 12.293 7.09766 12.1758 7.37109C12.0586 7.64453 12 7.9375 12 8.25C12 8.5625 12.0586 8.85547 12.1758 9.12891C12.293 9.40234 12.4531 9.64062 12.6562 9.84375C12.8594 10.0469 13.0977 10.207 13.3711 10.3242C13.6445 10.4414 13.9375 10.5 14.25 10.5Z" fill="white"/>
</svg>
